<mxfile host="app.diagrams.net" modified="2020-11-08T09:08:33.605Z" agent="5.0 (Macintosh; Intel Mac OS X 10_14_6) AppleWebKit/537.36 (KHTML, like Gecko) Chrome/86.0.4240.183 Safari/537.36" etag="H_6fyEuwDa_vi4siQZq6" version="13.9.2" type="github">
  <diagram id="iXlUcna3LlMh3yb1cYlY" name="Page-1">
    <mxGraphModel dx="1186" dy="539" grid="1" gridSize="10" guides="1" tooltips="1" connect="1" arrows="1" fold="1" page="1" pageScale="1" pageWidth="827" pageHeight="1169" math="0" shadow="0">
      <root>
        <mxCell id="0" />
        <mxCell id="1" parent="0" />
        <mxCell id="FK8G6ixmhxEFHf3Zb8vc-1" style="edgeStyle=orthogonalEdgeStyle;rounded=0;orthogonalLoop=1;jettySize=auto;html=1;exitX=0.5;exitY=1;exitDx=0;exitDy=0;exitPerimeter=0;entryX=0.5;entryY=0;entryDx=0;entryDy=0;" edge="1" parent="1" source="FK8G6ixmhxEFHf3Zb8vc-3" target="FK8G6ixmhxEFHf3Zb8vc-10">
          <mxGeometry relative="1" as="geometry" />
        </mxCell>
        <mxCell id="FK8G6ixmhxEFHf3Zb8vc-2" value="取出令牌" style="edgeLabel;html=1;align=center;verticalAlign=middle;resizable=0;points=[];" vertex="1" connectable="0" parent="FK8G6ixmhxEFHf3Zb8vc-1">
          <mxGeometry x="-0.3" y="1" relative="1" as="geometry">
            <mxPoint x="29" y="6" as="offset" />
          </mxGeometry>
        </mxCell>
        <mxCell id="FK8G6ixmhxEFHf3Zb8vc-3" value="" style="shape=cylinder3;whiteSpace=wrap;html=1;boundedLbl=1;backgroundOutline=1;size=15;" vertex="1" parent="1">
          <mxGeometry x="360" y="150" width="60" height="80" as="geometry" />
        </mxCell>
        <mxCell id="FK8G6ixmhxEFHf3Zb8vc-4" style="edgeStyle=orthogonalEdgeStyle;rounded=0;orthogonalLoop=1;jettySize=auto;html=1;exitX=0.5;exitY=1;exitDx=0;exitDy=0;entryX=0.5;entryY=0;entryDx=0;entryDy=0;entryPerimeter=0;" edge="1" parent="1" source="FK8G6ixmhxEFHf3Zb8vc-7" target="FK8G6ixmhxEFHf3Zb8vc-3">
          <mxGeometry relative="1" as="geometry" />
        </mxCell>
        <mxCell id="FK8G6ixmhxEFHf3Zb8vc-5" value="放入木桶" style="edgeLabel;html=1;align=center;verticalAlign=middle;resizable=0;points=[];" vertex="1" connectable="0" parent="FK8G6ixmhxEFHf3Zb8vc-4">
          <mxGeometry y="2" relative="1" as="geometry">
            <mxPoint x="26" y="-5" as="offset" />
          </mxGeometry>
        </mxCell>
        <mxCell id="FK8G6ixmhxEFHf3Zb8vc-6" style="edgeStyle=orthogonalEdgeStyle;rounded=0;orthogonalLoop=1;jettySize=auto;html=1;exitX=1;exitY=0.5;exitDx=0;exitDy=0;strokeColor=#CC6600;" edge="1" parent="1" source="FK8G6ixmhxEFHf3Zb8vc-7">
          <mxGeometry relative="1" as="geometry">
            <mxPoint x="470" y="103" as="targetPoint" />
          </mxGeometry>
        </mxCell>
        <mxCell id="FK8G6ixmhxEFHf3Zb8vc-7" value="" style="rhombus;whiteSpace=wrap;html=1;" vertex="1" parent="1">
          <mxGeometry x="375" y="88" width="30" height="30" as="geometry" />
        </mxCell>
        <mxCell id="FK8G6ixmhxEFHf3Zb8vc-8" style="edgeStyle=orthogonalEdgeStyle;rounded=0;orthogonalLoop=1;jettySize=auto;html=1;exitX=1;exitY=0.5;exitDx=0;exitDy=0;" edge="1" parent="1" source="FK8G6ixmhxEFHf3Zb8vc-10">
          <mxGeometry relative="1" as="geometry">
            <mxPoint x="540" y="440" as="targetPoint" />
          </mxGeometry>
        </mxCell>
        <mxCell id="FK8G6ixmhxEFHf3Zb8vc-9" style="edgeStyle=orthogonalEdgeStyle;rounded=0;orthogonalLoop=1;jettySize=auto;html=1;exitX=0.5;exitY=1;exitDx=0;exitDy=0;strokeColor=#994C00;" edge="1" parent="1" source="FK8G6ixmhxEFHf3Zb8vc-10" target="FK8G6ixmhxEFHf3Zb8vc-19">
          <mxGeometry relative="1" as="geometry" />
        </mxCell>
        <mxCell id="FK8G6ixmhxEFHf3Zb8vc-10" value="" style="rhombus;whiteSpace=wrap;html=1;" vertex="1" parent="1">
          <mxGeometry x="375" y="270" width="30" height="30" as="geometry" />
        </mxCell>
        <mxCell id="FK8G6ixmhxEFHf3Zb8vc-11" value="" style="endArrow=classic;html=1;entryX=0;entryY=0.5;entryDx=0;entryDy=0;" edge="1" parent="1" target="FK8G6ixmhxEFHf3Zb8vc-7">
          <mxGeometry width="50" height="50" relative="1" as="geometry">
            <mxPoint x="260" y="103" as="sourcePoint" />
            <mxPoint x="370" y="108" as="targetPoint" />
          </mxGeometry>
        </mxCell>
        <mxCell id="FK8G6ixmhxEFHf3Zb8vc-12" value="令牌生产" style="edgeLabel;html=1;align=center;verticalAlign=middle;resizable=0;points=[];" vertex="1" connectable="0" parent="FK8G6ixmhxEFHf3Zb8vc-11">
          <mxGeometry x="-0.3684" relative="1" as="geometry">
            <mxPoint x="24" as="offset" />
          </mxGeometry>
        </mxCell>
        <mxCell id="FK8G6ixmhxEFHf3Zb8vc-13" value="桶是否已满" style="text;html=1;strokeColor=none;fillColor=none;align=center;verticalAlign=middle;whiteSpace=wrap;rounded=0;" vertex="1" parent="1">
          <mxGeometry x="357" y="68" width="68" height="20" as="geometry" />
        </mxCell>
        <mxCell id="FK8G6ixmhxEFHf3Zb8vc-14" value="已满丢弃" style="text;html=1;align=center;verticalAlign=middle;resizable=0;points=[];autosize=1;" vertex="1" parent="1">
          <mxGeometry x="470" y="93" width="60" height="20" as="geometry" />
        </mxCell>
        <mxCell id="FK8G6ixmhxEFHf3Zb8vc-15" value="" style="endArrow=classic;html=1;entryX=0;entryY=0.5;entryDx=0;entryDy=0;" edge="1" parent="1">
          <mxGeometry width="50" height="50" relative="1" as="geometry">
            <mxPoint x="260" y="284.5" as="sourcePoint" />
            <mxPoint x="375" y="284.5" as="targetPoint" />
          </mxGeometry>
        </mxCell>
        <mxCell id="FK8G6ixmhxEFHf3Zb8vc-16" value="请求流量" style="edgeLabel;html=1;align=center;verticalAlign=middle;resizable=0;points=[];" vertex="1" connectable="0" parent="FK8G6ixmhxEFHf3Zb8vc-15">
          <mxGeometry x="-0.3684" relative="1" as="geometry">
            <mxPoint x="24" as="offset" />
          </mxGeometry>
        </mxCell>
        <mxCell id="FK8G6ixmhxEFHf3Zb8vc-17" value="是否有令牌" style="text;html=1;strokeColor=none;fillColor=none;align=center;verticalAlign=middle;whiteSpace=wrap;rounded=0;" vertex="1" parent="1">
          <mxGeometry x="390" y="295" width="70" height="20" as="geometry" />
        </mxCell>
        <mxCell id="FK8G6ixmhxEFHf3Zb8vc-18" value="获取令牌放行" style="text;html=1;align=center;verticalAlign=middle;resizable=0;points=[];autosize=1;" vertex="1" parent="1">
          <mxGeometry x="460" y="270" width="90" height="20" as="geometry" />
        </mxCell>
        <mxCell id="FK8G6ixmhxEFHf3Zb8vc-19" value="无令牌被拒" style="text;html=1;align=center;verticalAlign=middle;resizable=0;points=[];autosize=1;" vertex="1" parent="1">
          <mxGeometry x="350" y="350" width="80" height="20" as="geometry" />
        </mxCell>
        <mxCell id="FK8G6ixmhxEFHf3Zb8vc-20" value="令牌桶" style="text;html=1;strokeColor=none;fillColor=none;align=center;verticalAlign=middle;whiteSpace=wrap;rounded=0;" vertex="1" parent="1">
          <mxGeometry x="425" y="200" width="40" height="20" as="geometry" />
        </mxCell>
        <mxCell id="FK8G6ixmhxEFHf3Zb8vc-21" value="" style="shape=cylinder3;whiteSpace=wrap;html=1;boundedLbl=1;backgroundOutline=1;size=15;" vertex="1" parent="1">
          <mxGeometry x="520" y="520" width="60" height="80" as="geometry" />
        </mxCell>
        <mxCell id="FK8G6ixmhxEFHf3Zb8vc-22" value="" style="whiteSpace=wrap;html=1;shape=mxgraph.basic.pointed_oval;fillColor=#3399FF;" vertex="1" parent="1">
          <mxGeometry x="519.3299999999999" y="480" width="10" height="10" as="geometry" />
        </mxCell>
        <mxCell id="FK8G6ixmhxEFHf3Zb8vc-23" value="" style="whiteSpace=wrap;html=1;shape=mxgraph.basic.pointed_oval;fillColor=#3399FF;" vertex="1" parent="1">
          <mxGeometry x="529.3299999999999" y="490" width="10" height="10" as="geometry" />
        </mxCell>
        <mxCell id="FK8G6ixmhxEFHf3Zb8vc-24" value="" style="whiteSpace=wrap;html=1;shape=mxgraph.basic.pointed_oval;fillColor=#3399FF;" vertex="1" parent="1">
          <mxGeometry x="540" y="510" width="10" height="10" as="geometry" />
        </mxCell>
        <mxCell id="FK8G6ixmhxEFHf3Zb8vc-25" value="" style="whiteSpace=wrap;html=1;shape=mxgraph.basic.pointed_oval;fillColor=#3399FF;" vertex="1" parent="1">
          <mxGeometry x="560" y="450" width="10" height="10" as="geometry" />
        </mxCell>
        <mxCell id="FK8G6ixmhxEFHf3Zb8vc-26" value="" style="whiteSpace=wrap;html=1;shape=mxgraph.basic.pointed_oval;fillColor=#3399FF;" vertex="1" parent="1">
          <mxGeometry x="500" y="450" width="10" height="10" as="geometry" />
        </mxCell>
        <mxCell id="FK8G6ixmhxEFHf3Zb8vc-27" value="" style="whiteSpace=wrap;html=1;shape=mxgraph.basic.pointed_oval;fillColor=#3399FF;" vertex="1" parent="1">
          <mxGeometry x="540" y="470" width="10" height="10" as="geometry" />
        </mxCell>
        <mxCell id="FK8G6ixmhxEFHf3Zb8vc-28" value="" style="whiteSpace=wrap;html=1;shape=mxgraph.basic.pointed_oval;fillColor=#3399FF;" vertex="1" parent="1">
          <mxGeometry x="545" y="530" width="10" height="10" as="geometry" />
        </mxCell>
        <mxCell id="FK8G6ixmhxEFHf3Zb8vc-29" value="" style="whiteSpace=wrap;html=1;shape=mxgraph.basic.pointed_oval;fillColor=#3399FF;" vertex="1" parent="1">
          <mxGeometry x="509.3299999999999" y="470" width="10" height="10" as="geometry" />
        </mxCell>
        <mxCell id="FK8G6ixmhxEFHf3Zb8vc-30" value="" style="whiteSpace=wrap;html=1;shape=mxgraph.basic.pointed_oval;fillColor=#3399FF;" vertex="1" parent="1">
          <mxGeometry x="540" y="490" width="10" height="10" as="geometry" />
        </mxCell>
        <mxCell id="FK8G6ixmhxEFHf3Zb8vc-31" value="" style="whiteSpace=wrap;html=1;shape=mxgraph.basic.pointed_oval;fillColor=#3399FF;" vertex="1" parent="1">
          <mxGeometry x="550" y="490" width="10" height="10" as="geometry" />
        </mxCell>
        <mxCell id="FK8G6ixmhxEFHf3Zb8vc-32" value="" style="whiteSpace=wrap;html=1;shape=mxgraph.basic.pointed_oval;fillColor=#3399FF;" vertex="1" parent="1">
          <mxGeometry x="545" y="610" width="10" height="10" as="geometry" />
        </mxCell>
        <mxCell id="FK8G6ixmhxEFHf3Zb8vc-33" value="" style="whiteSpace=wrap;html=1;shape=mxgraph.basic.pointed_oval;fillColor=#3399FF;" vertex="1" parent="1">
          <mxGeometry x="545" y="630" width="10" height="10" as="geometry" />
        </mxCell>
        <mxCell id="FK8G6ixmhxEFHf3Zb8vc-34" value="" style="whiteSpace=wrap;html=1;shape=mxgraph.basic.pointed_oval;fillColor=#3399FF;" vertex="1" parent="1">
          <mxGeometry x="545" y="650" width="10" height="10" as="geometry" />
        </mxCell>
        <mxCell id="FK8G6ixmhxEFHf3Zb8vc-35" value="" style="whiteSpace=wrap;html=1;shape=mxgraph.basic.pointed_oval;fillColor=#3399FF;" vertex="1" parent="1">
          <mxGeometry x="545" y="670" width="10" height="10" as="geometry" />
        </mxCell>
        <mxCell id="FK8G6ixmhxEFHf3Zb8vc-36" value="" style="whiteSpace=wrap;html=1;shape=mxgraph.basic.pointed_oval;fillColor=#3399FF;" vertex="1" parent="1">
          <mxGeometry x="560" y="470" width="10" height="10" as="geometry" />
        </mxCell>
        <mxCell id="FK8G6ixmhxEFHf3Zb8vc-37" value="" style="whiteSpace=wrap;html=1;shape=mxgraph.basic.pointed_oval;fillColor=#3399FF;" vertex="1" parent="1">
          <mxGeometry x="560" y="490" width="10" height="10" as="geometry" />
        </mxCell>
        <mxCell id="FK8G6ixmhxEFHf3Zb8vc-38" value="" style="whiteSpace=wrap;html=1;shape=mxgraph.basic.pointed_oval;fillColor=#3399FF;" vertex="1" parent="1">
          <mxGeometry x="555" y="510" width="10" height="10" as="geometry" />
        </mxCell>
        <mxCell id="FK8G6ixmhxEFHf3Zb8vc-39" value="" style="endArrow=classic;html=1;entryX=0.855;entryY=0;entryDx=0;entryDy=4.35;entryPerimeter=0;" edge="1" parent="1" target="FK8G6ixmhxEFHf3Zb8vc-21">
          <mxGeometry width="50" height="50" relative="1" as="geometry">
            <mxPoint x="600" y="430" as="sourcePoint" />
            <mxPoint x="564" y="525" as="targetPoint" />
          </mxGeometry>
        </mxCell>
        <mxCell id="FK8G6ixmhxEFHf3Zb8vc-40" value="" style="endArrow=classic;html=1;entryX=0.855;entryY=0;entryDx=0;entryDy=4.35;entryPerimeter=0;" edge="1" parent="1">
          <mxGeometry width="50" height="50" relative="1" as="geometry">
            <mxPoint x="490" y="430" as="sourcePoint" />
            <mxPoint x="529.3299999999999" y="525" as="targetPoint" />
          </mxGeometry>
        </mxCell>
        <mxCell id="FK8G6ixmhxEFHf3Zb8vc-41" value="" style="whiteSpace=wrap;html=1;shape=mxgraph.basic.pointed_oval;fillColor=#3399FF;" vertex="1" parent="1">
          <mxGeometry x="519.3299999999999" y="480" width="10" height="10" as="geometry" />
        </mxCell>
        <mxCell id="FK8G6ixmhxEFHf3Zb8vc-42" value="" style="whiteSpace=wrap;html=1;shape=mxgraph.basic.pointed_oval;fillColor=#3399FF;" vertex="1" parent="1">
          <mxGeometry x="570" y="460" width="10" height="10" as="geometry" />
        </mxCell>
        <mxCell id="FK8G6ixmhxEFHf3Zb8vc-43" value="漏桶" style="text;html=1;strokeColor=none;fillColor=none;align=center;verticalAlign=middle;whiteSpace=wrap;rounded=0;" vertex="1" parent="1">
          <mxGeometry x="479.3299999999999" y="550" width="40" height="20" as="geometry" />
        </mxCell>
        <mxCell id="FK8G6ixmhxEFHf3Zb8vc-45" value="" style="whiteSpace=wrap;html=1;shape=mxgraph.basic.pointed_oval;fillColor=#3399FF;" vertex="1" parent="1">
          <mxGeometry x="550" y="480" width="10" height="10" as="geometry" />
        </mxCell>
        <mxCell id="FK8G6ixmhxEFHf3Zb8vc-46" value="" style="whiteSpace=wrap;html=1;shape=mxgraph.basic.pointed_oval;fillColor=#3399FF;" vertex="1" parent="1">
          <mxGeometry x="510" y="460" width="10" height="10" as="geometry" />
        </mxCell>
        <mxCell id="FK8G6ixmhxEFHf3Zb8vc-47" value="" style="whiteSpace=wrap;html=1;shape=mxgraph.basic.pointed_oval;fillColor=#3399FF;" vertex="1" parent="1">
          <mxGeometry x="530" y="460" width="10" height="10" as="geometry" />
        </mxCell>
        <mxCell id="FK8G6ixmhxEFHf3Zb8vc-48" value="匀速流出" style="text;html=1;strokeColor=none;fillColor=none;align=center;verticalAlign=middle;whiteSpace=wrap;rounded=0;" vertex="1" parent="1">
          <mxGeometry x="564" y="625" width="60" height="20" as="geometry" />
        </mxCell>
      </root>
    </mxGraphModel>
  </diagram>
</mxfile>
